<svg xmlns="http://www.w3.org/2000/svg" viewBox="0 0 64 64"><rect width="64" height="64" fill="none"/><path d="M32,6c-7.06,0-7.95,0-10.72.16A19,19,0,0,0,15,7.36,13.29,13.29,0,0,0,7.36,15a19,19,0,0,0-1.2,6.31C6,24.05,6,24.94,6,32s0,8,.16,10.72A19,19,0,0,0,7.36,49,13.23,13.23,0,0,0,15,56.63a18.7,18.7,0,0,0,6.31,1.21C24.05,58,24.94,58,32,58s8,0,10.72-.16A18.7,18.7,0,0,0,49,56.63a13.18,13.18,0,0,0,7.6-7.6,18.7,18.7,0,0,0,1.21-6.31C58,40,58,39.06,58,32s0-7.95-.16-10.72A18.7,18.7,0,0,0,56.63,15a12.71,12.71,0,0,0-3-4.61,12.86,12.86,0,0,0-4.61-3,19,19,0,0,0-6.31-1.2C40,6,39.06,6,32,6Zm0,4.68c6.94,0,7.77,0,10.51.16a14.11,14.11,0,0,1,4.82.89,8,8,0,0,1,3,1.95,8,8,0,0,1,2,3,14.11,14.11,0,0,1,.89,4.82c.13,2.74.16,3.57.16,10.51s0,7.77-.16,10.51a14.11,14.11,0,0,1-.89,4.82,8.66,8.66,0,0,1-4.94,4.94,14.11,14.11,0,0,1-4.82.89c-2.74.13-3.57.16-10.51.16s-7.77,0-10.51-.16a14.11,14.11,0,0,1-4.82-.89,8,8,0,0,1-3-2,8,8,0,0,1-1.95-3,14.11,14.11,0,0,1-.89-4.82c-.13-2.74-.16-3.57-.16-10.51s0-7.77.16-10.51a14.11,14.11,0,0,1,.89-4.82,8,8,0,0,1,1.95-3,8,8,0,0,1,3-1.95,14.11,14.11,0,0,1,4.82-.89C24.23,10.71,25.06,10.68,32,10.68Z" fill-rule="evenodd"/><path d="M32,40.68a8.68,8.68,0,0,1,0-17.36h0a8.68,8.68,0,0,1,0,17.36Zm0-22a13.36,13.36,0,1,0,0,26.72h0a13.36,13.36,0,0,0,0-26.72Zm17.25-.25a3.16,3.16,0,1,1-3.16-3.16,3.15,3.15,0,0,1,3.16,3.16" fill-rule="evenodd"/></svg>