<svg xmlns="http://www.w3.org/2000/svg" viewBox="0 0 64 64"><rect width="64" height="64" fill="none"/><path d="M20.5,57.19c23.39,0,36.19-19.38,36.19-36.19,0-.55,0-1.1,0-1.65A26,26,0,0,0,63,12.77a25.35,25.35,0,0,1-7.31,2,12.76,12.76,0,0,0,5.6-7,25.53,25.53,0,0,1-8.08,3.09,12.73,12.73,0,0,0-21.68,11.6A36.06,36.06,0,0,1,5.32,9.13a12.72,12.72,0,0,0,3.93,17,12.58,12.58,0,0,1-5.77-1.59v.16A12.72,12.72,0,0,0,13.69,37.15a12.7,12.7,0,0,1-5.75.22A12.73,12.73,0,0,0,19.83,46.2,25.59,25.59,0,0,1,1,51.48a36,36,0,0,0,19.5,5.7"/></svg>