<svg xmlns="http://www.w3.org/2000/svg" viewBox="0 0 64 64"><rect width="64" height="64" fill="none"/><path d="M61,29.9c0-13-13-23.53-29-23.53S3,16.93,3,29.9C3,41.54,13.32,51.28,27.25,53.12c.95.2,2.23.62,2.56,1.43a6,6,0,0,1,.09,2.62s-.34,2-.41,2.49c-.13.73-.58,2.86,2.51,1.56s16.7-9.84,22.79-16.84h0C59,39.77,61,35.1,61,29.9ZM21.77,36.83a.57.57,0,0,1-.57.57H13.08a.55.55,0,0,1-.39-.16h0a.55.55,0,0,1-.16-.39h0V24.2a.57.57,0,0,1,.57-.57h2a.57.57,0,0,1,.57.57v10H21.2a.56.56,0,0,1,.57.57Zm4.9,0a.56.56,0,0,1-.56.56h-2a.56.56,0,0,1-.56-.56V24.2a.56.56,0,0,1,.56-.57h2a.56.56,0,0,1,.56.57Zm14,0a.56.56,0,0,1-.56.56H37.87l0,0h0l0,0h0a.67.67,0,0,1-.15-.14l-5.8-7.83v7.5a.56.56,0,0,1-.56.56h-2a.56.56,0,0,1-.57-.56V24.2a.56.56,0,0,1,.57-.57h2.29l0,0h0l0,0h0l0,0h0l0,0h0l0,.06,5.79,7.82V24.2a.56.56,0,0,1,.56-.57h2a.56.56,0,0,1,.56.57Zm11.24-10.6a.58.58,0,0,1-.57.57H45.82v2.13h5.52a.57.57,0,0,1,.57.57v2a.58.58,0,0,1-.57.57H45.82v2.13h5.52a.57.57,0,0,1,.57.57v2a.58.58,0,0,1-.57.57H43.22a.58.58,0,0,1-.39-.16h0a.55.55,0,0,1-.16-.39h0V24.2h0a.53.53,0,0,1,.16-.39h0a.58.58,0,0,1,.4-.16h8.12a.57.57,0,0,1,.57.57Z"/></svg>