<?xml version="1.0" standalone="no"?>
<!DOCTYPE svg PUBLIC "-//W3C//DTD SVG 20010904//EN"
 "http://www.w3.org/TR/2001/REC-SVG-20010904/DTD/svg10.dtd">
<svg version="1.0" xmlns="http://www.w3.org/2000/svg"
 width="300.000000pt" height="300.000000pt" viewBox="0 0 300.000000 300.000000"
 preserveAspectRatio="xMidYMid meet">
<metadata>
Created by potrace 1.14, written by Peter Selinger 2001-2017
</metadata>
<g transform="translate(0.000000,300.000000) scale(0.100000,-0.100000)"
fill="#000000" stroke="none">
<path d="M1350 2997 c-3 -3 -29 -8 -59 -11 -128 -15 -324 -75 -449 -136 -364
-177 -650 -508 -770 -890 -54 -168 -66 -249 -66 -440 -1 -216 6 -275 51 -430
73 -254 199 -468 382 -650 217 -216 454 -344 766 -412 81 -18 134 -22 275 -22
159 -1 291 7 309 19 4 2 23 7 42 10 19 3 88 24 154 46 411 137 743 452 910
864 20 49 54 151 59 179 2 12 9 44 16 71 19 82 25 162 25 315 0 180 -8 241
-52 400 -130 471 -503 862 -968 1014 -160 52 -249 67 -440 72 -100 3 -183 3
-185 1z m350 -202 c41 -7 88 -16 104 -19 52 -9 160 -48 246 -88 380 -176 651
-518 736 -933 13 -64 16 -105 19 -240 4 -168 -8 -255 -55 -405 -134 -433 -488
-768 -928 -879 -119 -31 -137 -33 -292 -36 -130 -3 -221 5 -342 30 -52 10
-203 68 -273 102 -202 102 -381 261 -508 451 -53 79 -92 156 -75 150 55 -22
667 -270 762 -309 147 -61 268 -87 402 -87 226 -1 430 71 613 213 39 31 71 60
71 65 0 11 -189 200 -200 200 -5 0 -13 -6 -17 -14 -12 -19 -100 -80 -158 -109
-68 -34 -135 -56 -198 -64 -232 -30 -438 38 -595 199 -83 85 -120 146 -163
267 -99 281 21 619 280 786 317 205 739 113 946 -205 63 -96 116 -265 110
-349 -2 -21 1 -21 143 -21 l144 0 -5 73 c-4 39 -9 83 -12 97 -2 14 -7 39 -11
55 -32 161 -161 378 -290 490 -31 28 -63 56 -70 63 -7 6 -15 12 -19 12 -3 0
-21 11 -38 24 -59 44 -228 116 -304 131 -129 24 -168 27 -267 22 -97 -5 -231
-30 -291 -55 -337 -139 -555 -399 -618 -736 -30 -157 -11 -386 43 -510 10 -25
16 -46 11 -46 -5 0 -62 22 -127 49 -66 27 -152 62 -191 78 -67 26 -73 31 -80
63 -10 46 -10 321 0 385 57 365 262 687 571 895 150 101 370 187 526 205 30 4
56 8 58 10 9 9 279 1 342 -10z"/>
<path d="M1477 1924 c-1 -2 -20 -5 -42 -8 -161 -19 -313 -147 -356 -298 -56
-199 36 -401 226 -493 135 -66 273 -63 409 9 214 111 288 382 161 586 -47 75
-139 147 -228 177 -37 13 -164 33 -170 27z m93 -272 c50 -20 100 -85 100 -131
0 -17 -13 -18 -171 -18 l-170 -1 4 35 c13 95 136 155 237 115z"/>
</g>
</svg>
