<?xml version="1.0" encoding="utf-8"?>
<!-- Generator: Adobe Illustrator 22.1.0, SVG Export Plug-In . SVG Version: 6.00 Build 0)  -->
<svg version="1.1" id="echo-logo" xmlns="http://www.w3.org/2000/svg" xmlns:xlink="http://www.w3.org/1999/xlink" x="0px" y="0px"
	 viewBox="0 0 256 90" style="enable-background:new 0 0 256 90;" xml:space="preserve">
<style type="text/css">
	.st0{opacity:0.5;fill:#FFFFFF;}
	.st1{fill:#FFFFFF;}
</style>
<path class="st0" d="M229.9,90c-7.5,0-13.7-2.6-18.4-7.6c-4.7-5.1-7.1-11.1-7.1-17.9s2.3-12.7,6.8-17.7c4.9-5.5,11.2-8.2,18.8-8.2
	c7.5,0,13.8,2.8,18.7,8.2c4.5,5,6.8,10.9,6.8,17.7s-2.4,12.8-7.1,17.9C243.5,87.4,237.4,90,229.9,90z M229.9,42.9
	c-5.7,0-10.7,2.1-14.8,6.3s-6.2,9.3-6.2,15.3c0,3.8,0.9,7.5,2.8,10.8c1.9,3.3,4.4,5.9,7.6,7.8c3.2,1.8,6.7,2.7,10.5,2.7
	s7.3-0.9,10.5-2.7c3.2-1.8,5.7-4.4,7.6-7.8c1.9-3.3,2.8-7,2.8-10.8c0-6-2.1-11.1-6.2-15.3C240.5,45,235.5,42.9,229.9,42.9
	L229.9,42.9z"/>
<path class="st1" d="M45.6,67.2c-0.7,1.2-2.2,2.4-3,3.1C40.3,72,38.8,73,36.3,74c-3.3,1.4-6,1.9-9.3,1.8c-5.6-0.1-9.4-0.8-13.8-4.1
	s-7.1-8-8.2-14.1l-0.2-0.4l45.3-7.6c-1.2-6-3.7-11-7.7-14.7c-5.8-5.5-13-7.6-21.2-6.3c-8,1.2-13.9,5.3-17.8,12
	c-3,5.4-4,11.2-3.1,17.4c1,6.5,4.1,12.1,9.4,16.6c5.2,4.4,11.8,5.6,19.7,5.1c4-0.2,6.2-0.6,9.7-2.3c2.7-1.3,4.8-2.4,7.1-4.6
	c0.7-0.7,2.4-2.4,2.9-3.3c-0.7-0.6-0.8-0.5-1.5-1C47.2,68.2,46.1,67.6,45.6,67.2z M4.8,51.7c0.6-5,2.2-9,4.5-11.9
	c3.2-3.9,7.5-6.3,12.6-7.1c3.1-0.5,6.3-0.2,9.3,0.6s5.6,2.3,7.7,4.2c2.1,1.9,3.8,4.7,5.3,8.1l0.5,1.3L4.6,53.1
	C4.6,53.1,4.8,51.7,4.8,51.7z M93.1,79.7c-7.7,0-14.2-2.5-19.3-7.4c-5.1-4.9-7.6-10.9-7.6-17.9c0-4.7,1.2-9.2,3.6-13.2
	s5.7-7.2,9.8-9.5c4.2-2.3,8.9-3.4,14.1-3.4c3.2,0,6.4,0.5,9.4,1.5s5.6,2.3,7.7,3.9c1.8,1.4,3.4,3.1,4.8,5.2l-3.5,2.2
	c-4.6-5.7-10.9-8.6-18.6-8.6c-6.4,0-11.9,2.1-16.2,6.3s-6.4,9.3-6.4,15.3c0,3.9,1,7.6,3,11s4.7,6.1,8.2,8c3.4,1.9,7.3,2.8,11.5,2.8
	c7.5,0,13.7-2.9,18.5-8.6l3.5,2.3c-2.3,3.1-5.2,5.6-8.8,7.3C102.7,78.7,98.2,79.7,93.1,79.7z M172,79V55.2c0-6-0.1-9.9-0.6-12
	c-0.9-3.6-2.4-6.3-4.7-8.2c-2.3-1.8-5.3-2.8-9-2.8c-4.2,0-8,1.4-11.3,4.2s-5.4,6.2-6.5,10.3c-0.6,2.6-0.9,7.2-0.9,14.1V79h-4V10h4
	v29.4l1.4-2.1c2.6-3.3,4.7-4.8,8.4-6.5c3.1-1.5,6.6-2.5,10.2-2.5c3.6,0,6.8,0.9,9.6,2.7c2.8,1.8,5,4.3,6.3,7.3
	c1.3,3.1,2.2,8.1,2.2,14.9V79H172z M219.6,79.7c-7.5,0-13.7-2.6-18.4-7.6c-4.7-5.1-7.1-11.1-7.1-17.9s2.3-12.7,6.8-17.6
	c4.9-5.5,11.2-8.2,18.8-8.2c7.5,0,13.8,2.8,18.7,8.2c4.5,5,6.8,10.9,6.8,17.7s-2.4,12.8-7.1,17.9C233.3,77.2,227.1,79.8,219.6,79.7z
	 M219.6,32.6c-5.7,0-10.7,2.1-14.8,6.3s-6.1,9.4-6.1,15.3c0,3.8,0.9,7.5,2.8,10.8c1.9,3.3,4.4,5.9,7.6,7.8c3.2,1.8,6.7,2.7,10.5,2.7
	s7.3-0.9,10.5-2.7c3.2-1.8,5.7-4.4,7.6-7.8c1.9-3.3,2.8-7,2.8-10.8c0-6-2.1-11.1-6.2-15.3C230.3,34.8,225.3,32.7,219.6,32.6
	L219.6,32.6z"/>
</svg>
