<svg id="echo-logo" xmlns="http://www.w3.org/2000/svg" viewBox="0 0 256 90"><style>.st0{fill:#B3B3B3;} .st1{fill:#333333;}</style><path class="st0" d="M229.9 90c-7.5 0-13.7-2.6-18.4-7.6-4.7-5.1-7.1-11.1-7.1-17.9 0-6.8 2.3-12.7 6.8-17.7 4.9-5.5 11.2-8.2 18.8-8.2 7.5 0 13.8 2.8 18.7 8.2 4.5 5 6.8 10.9 6.8 17.7 0 6.8-2.4 12.8-7.1 17.9-4.9 5-11 7.6-18.5 7.6zm0-47.1c-5.7 0-10.7 2.1-14.8 6.3-4.1 4.2-6.2 9.3-6.2 15.3 0 3.8.9 7.5 2.8 10.8 1.9 3.3 4.4 5.9 7.6 7.8 3.2 1.8 6.7 2.7 10.5 2.7s7.3-.9 10.5-2.7c3.2-1.8 5.7-4.4 7.6-7.8 1.9-3.3 2.8-7 2.8-10.8 0-6-2.1-11.1-6.2-15.3-4-4.2-9-6.3-14.6-6.3z"/><path class="st1" d="M45.6 67.2c-.7 1.2-2.2 2.4-3 3.1-2.3 1.7-3.8 2.7-6.3 3.7-3.3 1.4-6 1.9-9.3 1.8-5.6-.1-9.4-.8-13.8-4.1s-7.1-8-8.2-14.1l-.2-.4 45.3-7.6c-1.2-6-3.7-11-7.7-14.7-5.8-5.5-13-7.6-21.2-6.3-8 1.2-13.9 5.3-17.8 12C.4 46-.6 51.8.3 58c1 6.5 4.1 12.1 9.4 16.6 5.2 4.4 11.8 5.6 19.7 5.1 4-.2 6.2-.6 9.7-2.3 2.7-1.3 4.8-2.4 7.1-4.6.7-.7 2.4-2.4 2.9-3.3-.7-.6-.8-.5-1.5-1-.4-.3-1.5-.9-2-1.3zM4.8 51.7c.6-5 2.2-9 4.5-11.9 3.2-3.9 7.5-6.3 12.6-7.1 3.1-.5 6.3-.2 9.3.6s5.6 2.3 7.7 4.2c2.1 1.9 3.8 4.7 5.3 8.1l.5 1.3-40.1 6.2.2-1.4zm88.3 28c-7.7 0-14.2-2.5-19.3-7.4-5.1-4.9-7.6-10.9-7.6-17.9 0-4.7 1.2-9.2 3.6-13.2 2.4-4 5.7-7.2 9.8-9.5 4.2-2.3 8.9-3.4 14.1-3.4 3.2 0 6.4.5 9.4 1.5s5.6 2.3 7.7 3.9c1.8 1.4 3.4 3.1 4.8 5.2l-3.5 2.2c-4.6-5.7-10.9-8.6-18.6-8.6-6.4 0-11.9 2.1-16.2 6.3-4.3 4.2-6.4 9.3-6.4 15.3 0 3.9 1 7.6 3 11 2 3.4 4.7 6.1 8.2 8 3.4 1.9 7.3 2.8 11.5 2.8 7.5 0 13.7-2.9 18.5-8.6l3.5 2.3c-2.3 3.1-5.2 5.6-8.8 7.3-4.1 1.8-8.6 2.8-13.7 2.8zM172 79V55.2c0-6-.1-9.9-.6-12-.9-3.6-2.4-6.3-4.7-8.2-2.3-1.8-5.3-2.8-9-2.8-4.2 0-8 1.4-11.3 4.2-3.3 2.8-5.4 6.2-6.5 10.3-.6 2.6-.9 7.2-.9 14.1V79h-4V10h4v29.4l1.4-2.1c2.6-3.3 4.7-4.8 8.4-6.5 3.1-1.5 6.6-2.5 10.2-2.5 3.6 0 6.8.9 9.6 2.7 2.8 1.8 5 4.3 6.3 7.3 1.3 3.1 2.2 8.1 2.2 14.9V79H172zm47.6.7c-7.5 0-13.7-2.6-18.4-7.6-4.7-5.1-7.1-11.1-7.1-17.9 0-6.8 2.3-12.7 6.8-17.6 4.9-5.5 11.2-8.2 18.8-8.2 7.5 0 13.8 2.8 18.7 8.2 4.5 5 6.8 10.9 6.8 17.7 0 6.8-2.4 12.8-7.1 17.9-4.8 5-11 7.6-18.5 7.5zm0-47.1c-5.7 0-10.7 2.1-14.8 6.3-4.1 4.2-6.1 9.4-6.1 15.3 0 3.8.9 7.5 2.8 10.8 1.9 3.3 4.4 5.9 7.6 7.8 3.2 1.8 6.7 2.7 10.5 2.7s7.3-.9 10.5-2.7c3.2-1.8 5.7-4.4 7.6-7.8 1.9-3.3 2.8-7 2.8-10.8 0-6-2.1-11.1-6.2-15.3-4-4.1-9-6.2-14.7-6.3z"/></svg>