<svg xmlns="http://www.w3.org/2000/svg" viewBox="0 0 162.27 32.09"><title>dummy_logo</title><path d="M51.12,4.2H55.5V8.87h4.17v4H55.5v2.49c0,6.78-3.15,10.76-13.09,12.37l-1.63-4c10-1.12,10.34-5.47,10.34-8.41V12.88H44.23v6.39H40V12.88h-4v-4h4V4.28h4.28V8.87h6.89Z" fill="#333"/><path d="M77.68,27.36H73.16V16.46a45,45,0,0,1-8.92,4l-2.35-3.6a40.3,40.3,0,0,0,19.71-13L85.45,6.5a54.58,54.58,0,0,1-7.77,6.94Z" fill="#333"/><path d="M95.77,4.15V10.5a61.51,61.51,0,0,1,12.85,5.62l-2.27,4.46A51.76,51.76,0,0,0,95.77,15V27.68H91.12V4.15Z" fill="#333"/><path d="M133.81,5.86V26.35h-21.1V5.86Zm-4.49,4H117.06V22.31h12.26Z" fill="#333"/><path d="M155.19,6.39c.11.59.19,1.71.24,2.32l3.77-.37V26H139v-4.2h15.66V10.56H139.29V6.39Zm1,1.5a31.62,31.62,0,0,0-.72-4.31l2.35-.24a26.48,26.48,0,0,1,.86,4.25Zm3.63-.38A27.78,27.78,0,0,0,159,3.34l2.37-.26a25.14,25.14,0,0,1,.94,4.08Z" fill="#333"/><path d="M13.9,5.77l8.89,5.14V21.18L13.9,26.32,5,21.18V10.91l8.9-5.14M13.9,0,0,8V24.07l13.9,8,13.89-8V8L13.9,0Z" fill="#333"/></svg>